<mxfile host="Electron" modified="2024-09-06T13:16:42.455Z" agent="Mozilla/5.0 (Windows NT 10.0; Win64; x64) AppleWebKit/537.36 (KHTML, like Gecko) draw.io/24.2.5 Chrome/120.0.6099.109 Electron/28.1.0 Safari/537.36" etag="T3TTuhxXroDiT2nnylww" version="24.2.5" type="device">
  <diagram name="__init__(DiaryControllerクラス)" id="krlevnmbtSTOEar9fcec">
    <mxGraphModel dx="1036" dy="606" grid="1" gridSize="10" guides="1" tooltips="1" connect="1" arrows="1" fold="1" page="1" pageScale="1" pageWidth="827" pageHeight="1169" math="0" shadow="0">
      <root>
        <mxCell id="0" />
        <mxCell id="1" parent="0" />
        <mxCell id="V0N3kM74LnBP_tVwNviP-1" value="" style="edgeStyle=orthogonalEdgeStyle;rounded=0;orthogonalLoop=1;jettySize=auto;html=1;" parent="1" source="V0N3kM74LnBP_tVwNviP-2" target="V0N3kM74LnBP_tVwNviP-11" edge="1">
          <mxGeometry relative="1" as="geometry" />
        </mxCell>
        <mxCell id="V0N3kM74LnBP_tVwNviP-2" value="開始" style="strokeWidth=2;html=1;shape=mxgraph.flowchart.start_1;whiteSpace=wrap;" parent="1" vertex="1">
          <mxGeometry x="365" y="210" width="70" height="40" as="geometry" />
        </mxCell>
        <mxCell id="V0N3kM74LnBP_tVwNviP-8" value="&lt;b style=&quot;&quot;&gt;&lt;font style=&quot;&quot;&gt;&lt;font style=&quot;font-size: 18px;&quot;&gt;初期化メソッド&lt;/font&gt;&lt;/font&gt;&lt;/b&gt;&lt;div&gt;&lt;font style=&quot;font-size: 14px;&quot;&gt;クラス：DiaryControllerクラス&lt;/font&gt;&lt;/div&gt;&lt;div&gt;&lt;font style=&quot;font-size: 14px;&quot;&gt;&lt;br&gt;&lt;/font&gt;&lt;/div&gt;&lt;div&gt;&lt;font style=&quot;font-size: 14px;&quot;&gt;役割&lt;/font&gt;&lt;/div&gt;&lt;div&gt;&lt;font style=&quot;font-size: 14px;&quot;&gt;ビジネスロジックを定義する&lt;/font&gt;&lt;/div&gt;" style="text;html=1;align=left;verticalAlign=top;whiteSpace=wrap;rounded=0;fillColor=#f5f5f5;fontColor=#333333;strokeColor=#666666;" parent="1" vertex="1">
          <mxGeometry x="20" y="20" width="340" height="110" as="geometry" />
        </mxCell>
        <mxCell id="V0N3kM74LnBP_tVwNviP-10" value="" style="edgeStyle=orthogonalEdgeStyle;rounded=0;orthogonalLoop=1;jettySize=auto;html=1;" parent="1" source="V0N3kM74LnBP_tVwNviP-11" edge="1">
          <mxGeometry relative="1" as="geometry">
            <mxPoint x="400" y="450" as="targetPoint" />
          </mxGeometry>
        </mxCell>
        <mxCell id="V0N3kM74LnBP_tVwNviP-11" value="インスタンス変数に引数１を代入" style="rounded=1;whiteSpace=wrap;html=1;" parent="1" vertex="1">
          <mxGeometry x="300" y="320" width="200" height="60" as="geometry" />
        </mxCell>
        <mxCell id="onMlGxoVHChVTRVXrZ17-1" value="終了" style="strokeWidth=2;html=1;shape=mxgraph.flowchart.start_1;whiteSpace=wrap;" parent="1" vertex="1">
          <mxGeometry x="365" y="450" width="70" height="40" as="geometry" />
        </mxCell>
        <mxCell id="onMlGxoVHChVTRVXrZ17-2" value="&lt;div&gt;&lt;font style=&quot;font-size: 14px;&quot;&gt;引数１：DiaryModelクラス&lt;/font&gt;&lt;/div&gt;" style="text;html=1;align=left;verticalAlign=top;whiteSpace=wrap;rounded=0;fillColor=#f5f5f5;fontColor=#333333;strokeColor=#666666;" parent="1" vertex="1">
          <mxGeometry x="480" y="200" width="200" height="30" as="geometry" />
        </mxCell>
        <mxCell id="onMlGxoVHChVTRVXrZ17-3" style="rounded=0;orthogonalLoop=1;jettySize=auto;html=1;entryX=1;entryY=0.5;entryDx=0;entryDy=0;entryPerimeter=0;endArrow=none;endFill=0;" parent="1" source="onMlGxoVHChVTRVXrZ17-2" target="V0N3kM74LnBP_tVwNviP-2" edge="1">
          <mxGeometry relative="1" as="geometry" />
        </mxCell>
      </root>
    </mxGraphModel>
  </diagram>
</mxfile>
